# File produced by Open Asset Import Library (http://www.assimp.sf.net)
# (assimp v3.1.206520482)

adobe_mdllib tunnel.mdl

# 108 vertex positions
v 3.87122 20.9687 19.3561
v -3.87122 20.9687 19.3561
v -11.6137 20.9687 19.3561
v -17.8029 20.461 19.3561
v -19.3561 20.2741 19.3561
v -19.3561 20.2351 19.3561
v -19.3561 18.8851 19.3561
v -19.3561 18.1906 19.3561
v -19.3561 17.4961 19.3561
v -19.3561 16.767 19.3561
v -19.3561 6.52806 19.3561
v -11.6137 6.52806 19.3561
v -11.6137 16.767 19.3561
v -11.1682 17.0957 19.3561
v -10.6098 17.4961 19.3561
v -3.87122 17.4961 19.3561
v 3.87122 17.4961 19.3561
v 11.6137 16.767 19.3561
v 11.6137 6.52806 19.3561
v 19.3561 6.52806 19.3561
v 19.3561 16.767 19.3561
v 19.3561 17.4961 19.3561
v 19.3561 18.1906 19.3561
v 19.3561 18.8851 19.3561
v 19.3561 20.2351 19.3561
v 19.3561 20.2741 19.3561
v 17.8029 20.461 19.3561
v 11.6137 20.9687 19.3561
v 11.1682 17.0957 19.3561
v 10.6098 17.4961 19.3561
v -11.1682 17.0957 -11.6137
v -11.1682 17.0957 -19.3561
v -10.6098 17.4961 -19.3561
v -10.6098 17.4961 -11.6137
v -11.1682 17.0957 -3.87122
v -10.6098 17.4961 -3.87122
v -11.1682 17.0957 3.87122
v -10.6098 17.4961 3.87122
v -11.1682 17.0957 11.6137
v -10.6098 17.4961 11.6137
v -11.6137 6.52806 3.87122
v -11.6137 6.52806 11.6137
v -19.3561 6.52806 11.6137
v -19.3561 6.52806 3.87122
v -19.3561 6.52806 -3.87122
v -19.3561 6.52806 -11.6137
v -19.3561 6.52806 -19.3561
v -11.6137 6.52806 -19.3561
v -11.6137 6.52806 -11.6137
v -11.6137 6.52806 -3.87122
v 19.3561 6.52806 3.87122
v 19.3561 6.52806 11.6137
v 11.6137 6.52806 11.6137
v 11.6137 6.52806 3.87122
v 11.6137 6.52806 -3.87122
v 11.6137 6.52806 -11.6137
v 11.6137 6.52806 -19.3561
v 19.3561 6.52806 -19.3561
v 19.3561 6.52806 -11.6137
v 19.3561 6.52806 -3.87122
v 19.3561 20.2741 -19.3561
v 17.8029 20.461 -19.3561
v 11.6137 20.9687 -19.3561
v 3.87122 20.9687 -19.3561
v -3.87122 20.9687 -19.3561
v -11.6137 20.9687 -19.3561
v -17.8029 20.461 -19.3561
v -19.3561 20.2741 -19.3561
v -19.3561 20.2351 -19.3561
v -19.3561 20.2351 -11.6137
v -19.3561 20.2351 -3.87122
v -19.3561 20.2351 3.87122
v -19.3561 20.2351 11.6137
v 19.3561 20.2351 11.6137
v 19.3561 20.2351 3.87122
v 19.3561 20.2351 -3.87122
v 19.3561 20.2351 -11.6137
v 19.3561 20.2351 -19.3561
v -11.6137 16.767 -19.3561
v -11.6137 16.767 -11.6137
v -11.6137 16.767 -3.87122
v -11.6137 16.767 3.87122
v -11.6137 16.767 11.6137
v 11.6137 16.767 -11.6137
v 11.1682 17.0957 -11.6137
v 11.1682 17.0957 -19.3561
v 11.6137 16.767 -19.3561
v 11.6137 16.767 -3.87122
v 11.1682 17.0957 -3.87122
v 11.6137 16.767 3.87122
v 11.1682 17.0957 3.87122
v 11.6137 16.767 11.6137
v 11.1682 17.0957 11.6137
v 19.3561 16.767 -19.3561
v 19.3561 17.4961 -19.3561
v 19.3561 18.1906 -19.3561
v 19.3561 18.8851 -19.3561
v -19.3561 18.8851 -19.3561
v -19.3561 18.1906 -19.3561
v -19.3561 17.4961 -19.3561
v -19.3561 16.767 -19.3561
v -3.87122 17.4961 -19.3561
v 3.87122 17.4961 -19.3561
v 10.6098 17.4961 -19.3561
v 10.6098 17.4961 -11.6137
v 10.6098 17.4961 -3.87122
v 10.6098 17.4961 3.87122
v 10.6098 17.4961 11.6137

# 198 UV coordinates
vt 0.274525 0.675719 0
vt 0.275061 0.524205 0
vt 0.275598 0.37269 0
vt 0.285962 0.251591 0
vt 0.289726 0.221205 0
vt 0.290489 0.221206 0
vt 0.31691 0.221262 0
vt 0.330502 0.221291 0
vt 0.344093 0.221319 0
vt 0.358361 0.221349 0
vt 0.558739 0.221772 0
vt 0.558203 0.373286 0
vt 0.357825 0.372864 0
vt 0.351361 0.381567 0
vt 0.343487 0.392479 0
vt 0.34302 0.524348 0
vt 0.342484 0.675862 0
vt 0.356215 0.827407 0
vt 0.556593 0.827829 0
vt 0.556057 0.979343 0
vt 0.355679 0.978921 0
vt 0.341411 0.978891 0
vt 0.327819 0.978862 0
vt 0.314227 0.978834 0
vt 0.287807 0.978778 0
vt 0.287044 0.978776 0
vt 0.283495 0.948375 0
vt 0.273988 0.827233 0
vt 0.349813 0.818676 0
vt 0.342017 0.807731 0
vt 0.158778 0.743835 0
vt 0.158778 0.844112 0
vt 0.166011 0.844112 0
vt 0.166011 0.743835 0
vt 0.158778 0.643558 0
vt 0.166011 0.643558 0
vt 0.158778 0.543281 0
vt 0.166011 0.543281 0
vt 0.158778 0.443003 0
vt 0.166011 0.443003 0
vt 0.0964566 0.178203 0
vt 0.0964566 0.187799 0
vt 0.0964566 0.197395 0
vt 0.0868607 0.197395 0
vt 0.0868607 0.187799 0
vt 0.0868607 0.178203 0
vt 0.0868607 0.168607 0
vt 0.0868607 0.159011 0
vt 0.0868607 0.149415 0
vt 0.0964566 0.149415 0
vt 0.0964566 0.159011 0
vt 0.0964566 0.168607 0
vt 0.158778 0.342726 0
vt 0.166011 0.342726 0
vt 0.13484 0.178203 0
vt 0.13484 0.187799 0
vt 0.13484 0.197395 0
vt 0.125244 0.197395 0
vt 0.125244 0.187799 0
vt 0.125244 0.178203 0
vt 0.125244 0.168607 0
vt 0.125244 0.159011 0
vt 0.125244 0.149415 0
vt 0.13484 0.149415 0
vt 0.13484 0.159011 0
vt 0.13484 0.168607 0
vt 0.18282 0.04386 0
vt 0.13484 0.101436 0
vt 0.125244 0.101436 0
vt 0.115649 0.101436 0
vt 0.106053 0.101436 0
vt 0.0964566 0.101436 0
vt 0.0388809 0.0534559 0
vt 0.0388809 0.04386 0
vt 0.0388809 0.034264 0
vt 0.0484769 0.034264 0
vt 0.0580728 0.034264 0
vt 0.0676688 0.034264 0
vt 0.0772647 0.034264 0
vt 0.0868607 0.034264 0
vt 0.0868607 0.04386 0
vt 0.0868607 0.0534559 0
vt 0.0964566 0.0534559 0
vt 0.106053 0.0534559 0
vt 0.115649 0.0534559 0
vt 0.125244 0.0534559 0
vt 0.13484 0.0534559 0
vt 0.13484 0.04386 0
vt 0.13484 0.034264 0
vt 0.144436 0.034264 0
vt 0.154032 0.034264 0
vt 0.163628 0.034264 0
vt 0.173224 0.034264 0
vt 0.18282 0.034264 0
vt 0.153009 0.844112 0
vt 0.153009 0.743835 0
vt 0.153009 0.643558 0
vt 0.153009 0.543281 0
vt 0.153009 0.443003 0
vt 0.153009 0.342726 0
vt 0.118238 0.743835 0
vt 0.112468 0.743835 0
vt 0.112468 0.844112 0
vt 0.118238 0.844112 0
vt 0.118238 0.643558 0
vt 0.112468 0.643558 0
vt 0.118238 0.543281 0
vt 0.112468 0.543281 0
vt 0.118238 0.443003 0
vt 0.112468 0.443003 0
vt 0.118238 0.342726 0
vt 0.112468 0.342726 0
vt 0.590903 0.0513185 0
vt 0.473507 0.0513185 0
vt 0.35611 0.0513185 0
vt 0.35611 0.206569 0
vt 0.473507 0.206569 0
vt 0.590903 0.206569 0
vt 0.708299 0.206569 0
vt 0.825695 0.206569 0
vt 0.943091 0.206569 0
vt 0.943091 0.0513185 0
vt 0.825695 0.0513185 0
vt 0.708299 0.0513185 0
vt 0.18282 0.00547612 0
vt 0.18282 0.0150721 0
vt 0.18282 0.024668 0
vt 0.13484 0.024668 0
vt 0.13484 0.0150721 0
vt 0.0868607 0.00547612 0
vt 0.0868607 0.0150721 0
vt 0.0868607 0.024668 0
vt 0.0388809 0.024668 0
vt 0.0388809 0.0150721 0
vt 0.707583 0.0513185 0
vt 0.824979 0.0513184 0
vt 0.942376 0.0513184 0
vt 0.942376 0.206568 0
vt 0.824979 0.206568 0
vt 0.707583 0.206568 0
vt 0.590187 0.206568 0
vt 0.472791 0.206568 0
vt 0.355395 0.206568 0
vt 0.355395 0.0513184 0
vt 0.472791 0.0513184 0
vt 0.590187 0.0513185 0
vt 0.853885 0.229871 0
vt 0.736489 0.229871 0
vt 0.634314 0.229871 0
vt 0.634314 0.347267 0
vt 0.634314 0.464663 0
vt 0.634314 0.582059 0
vt 0.634314 0.699455 0
vt 0.634314 0.816852 0
vt 0.736489 0.816852 0
vt 0.853885 0.816852 0
vt 0.956059 0.816852 0
vt 0.956059 0.699455 0
vt 0.956059 0.582059 0
vt 0.956059 0.464663 0
vt 0.956059 0.347267 0
vt 0.956059 0.229871 0
vt 0.276097 0.525865 0
vt 0.276481 0.37435 0
vt 0.286649 0.253251 0
vt 0.290356 0.222864 0
vt 0.291113 0.222866 0
vt 0.317339 0.222921 0
vt 0.330831 0.222949 0
vt 0.344323 0.222978 0
vt 0.358486 0.223008 0
vt 0.55739 0.223427 0
vt 0.557006 0.374942 0
vt 0.358103 0.374522 0
vt 0.351695 0.383226 0
vt 0.34389 0.394138 0
vt 0.343556 0.526007 0
vt 0.343173 0.677522 0
vt 0.34284 0.809391 0
vt 0.356953 0.829066 0
vt 0.555857 0.829486 0
vt 0.555473 0.981 0
vt 0.356569 0.980581 0
vt 0.342407 0.980551 0
vt 0.328915 0.980523 0
vt 0.315423 0.980494 0
vt 0.289197 0.980439 0
vt 0.28844 0.980437 0
vt 0.284887 0.950035 0
vt 0.275331 0.828894 0
vt 0.275714 0.67738 0
vt 0.350589 0.820336 0
vt 0.105235 0.743835 0
vt 0.105235 0.844112 0
vt 0.105235 0.643558 0
vt 0.105235 0.543281 0
vt 0.105235 0.443003 0
vt 0.105235 0.342726 0

# 45 vertex normals
vn 0 0 1
vn 0.582633 -0.812735 0
vn 0.582633 -0.812735 0
vn 0.00375362 -0.999993 -1.2129e-09
vn 0.582633 -0.812735 0
vn 0.00375362 -0.999993 -1.2129e-09
vn 0.582634 -0.812735 0
vn 0.0037542 -0.999993 -1.21289e-09
vn 0.582634 -0.812735 0
vn 0 -1 0
vn 0 1 1.33667e-09
vn 0 1 1.33667e-09
vn -0.333772 0.942654 1.26002e-09
vn 0.333772 0.942654 1.26002e-09
vn 0.999963 -0.0086452 0
vn 0.593769 -0.804635 0
vn 0.593769 -0.804635 0
vn 0.999963 -0.0086452 0
vn 0.59377 -0.804635 0
vn 0.999963 -0.00864519 0
vn -0.999963 -0.00864521 0
vn -0.593769 -0.804635 0
vn -0.593769 -0.804635 0
vn -0.999963 -0.00864521 0
vn -0.59377 -0.804635 0
vn -0.999963 -0.0086452 0
vn -0.59377 -0.804635 0
vn -0.999963 -0.0086452 0
vn -0.59377 -0.804635 0
vn -1 -1.40849e-08 0
vn -1 -1.40849e-08 0
vn 1 0 0
vn -1 -2.10423e-08 0
vn -1 -2.10423e-08 0
vn 0 -1 -1.21929e-09
vn -0.00375362 -0.999993 -1.2129e-09
vn -0.00375362 -0.999993 -1.2129e-09
vn -0.00375362 -0.999993 -1.2129e-09
vn -0.0037542 -0.999993 -1.21289e-09
vn 0 0 -1
vn -0.582633 -0.812735 0
vn -0.582633 -0.812735 0
vn -0.582633 -0.812735 0
vn -0.582634 -0.812735 0
vn -0.582634 -0.812735 0

# Mesh 'pCube1_pCube1' with 212 faces
g pCube1_pCube1
usemtl MATERIAL_LAMBERT1
f 1/1/1 2/2/1 3/3/1
f 1/1/1 3/3/1 4/4/1
f 1/1/1 4/4/1 5/5/1
f 1/1/1 5/5/1 6/6/1
f 1/1/1 6/6/1 7/7/1
f 1/1/1 7/7/1 8/8/1
f 1/1/1 8/8/1 9/9/1
f 1/1/1 9/9/1 10/10/1
f 10/10/1 11/11/1 12/12/1
f 10/10/1 12/12/1 13/13/1
f 10/10/1 13/13/1 14/14/1
f 10/10/1 14/14/1 15/15/1
f 15/15/1 16/16/1 17/17/1
f 18/18/1 19/19/1 20/20/1
f 18/18/1 20/20/1 21/21/1
f 18/18/1 21/21/1 22/22/1
f 18/18/1 22/22/1 23/23/1
f 18/18/1 23/23/1 24/24/1
f 18/18/1 24/24/1 25/25/1
f 18/18/1 25/25/1 26/26/1
f 18/18/1 26/26/1 27/27/1
f 18/18/1 27/27/1 28/28/1
f 28/28/1 1/1/1 10/10/1
f 28/28/1 10/10/1 15/15/1
f 29/29/1 18/18/1 28/28/1
f 30/30/1 29/29/1 28/28/1
f 17/17/1 30/30/1 28/28/1
f 15/15/1 17/17/1 28/28/1
f 31/31/2 32/32/3 33/33/4
f 33/33/4 34/34/4 31/31/2
f 35/35/5 31/31/2 34/34/4
f 34/34/4 36/36/6 35/35/5
f 37/37/7 35/35/5 36/36/6
f 36/36/6 38/38/8 37/37/7
f 39/39/9 37/37/7 38/38/8
f 38/38/8 40/40/4 39/39/9
f 41/41/10 42/42/10 12/43/10
f 41/41/10 12/43/10 11/44/10
f 41/41/10 11/44/10 43/45/10
f 41/41/10 43/45/10 44/46/10
f 41/41/10 44/46/10 45/47/10
f 41/41/10 45/47/10 46/48/10
f 41/41/10 46/48/10 47/49/10
f 41/41/10 47/49/10 48/50/10
f 41/41/10 48/50/10 49/51/10
f 49/51/10 50/52/10 41/41/10
f 14/53/3 39/39/9 40/40/4
f 40/40/4 15/54/4 14/53/3
f 51/55/10 52/56/10 20/57/10
f 51/55/10 20/57/10 19/58/10
f 51/55/10 19/58/10 53/59/10
f 51/55/10 53/59/10 54/60/10
f 51/55/10 54/60/10 55/61/10
f 51/55/10 55/61/10 56/62/10
f 51/55/10 56/62/10 57/63/10
f 51/55/10 57/63/10 58/64/10
f 51/55/10 58/64/10 59/65/10
f 59/65/10 60/66/10 51/55/10
f 61/67/11 62/68/11 63/69/11
f 61/67/11 63/69/11 64/70/12
f 61/67/11 64/70/12 65/71/11
f 61/67/11 65/71/11 66/72/11
f 66/72/11 67/73/11 68/74/11
f 66/72/11 68/74/11 69/75/13
f 66/72/11 69/75/13 70/76/13
f 66/72/11 70/76/13 71/77/13
f 66/72/11 71/77/13 72/78/13
f 66/72/11 72/78/13 73/79/13
f 66/72/11 73/79/13 6/80/13
f 66/72/11 6/80/13 5/81/11
f 66/72/11 5/81/11 4/82/11
f 66/72/11 4/82/11 3/83/11
f 66/72/11 3/83/11 2/84/11
f 66/72/11 2/84/11 1/85/12
f 66/72/11 1/85/12 28/86/11
f 66/72/11 28/86/11 27/87/11
f 66/72/11 27/87/11 26/88/11
f 66/72/11 26/88/11 25/89/14
f 66/72/11 25/89/14 74/90/14
f 66/72/11 74/90/14 75/91/14
f 66/72/11 75/91/14 76/92/14
f 66/72/11 76/92/14 77/93/14
f 66/72/11 77/93/14 78/94/14
f 66/72/11 78/94/14 61/67/11
f 79/95/15 32/32/16 31/31/17
f 31/31/17 80/96/15 79/95/15
f 80/96/15 31/31/17 35/35/16
f 35/35/16 81/97/18 80/96/15
f 81/97/18 35/35/16 37/37/19
f 37/37/19 82/98/20 81/97/18
f 82/98/20 37/37/19 39/39/19
f 39/39/19 83/99/20 82/98/20
f 83/99/20 39/39/19 14/53/16
f 14/53/16 13/100/15 83/99/20
f 84/101/21 85/102/22 86/103/23
f 86/103/23 87/104/21 84/101/21
f 88/105/24 89/106/25 85/102/22
f 85/102/22 84/101/21 88/105/24
f 90/107/26 91/108/27 89/106/25
f 89/106/25 88/105/24 90/107/26
f 92/109/28 93/110/29 91/108/27
f 91/108/27 90/107/26 92/109/28
f 18/111/21 29/112/23 93/110/29
f 93/110/29 92/109/28 18/111/21
f 54/113/30 53/114/31 19/115/31
f 54/113/30 19/115/31 18/116/21
f 54/113/30 18/116/21 92/117/28
f 54/113/30 92/117/28 90/118/26
f 54/113/30 90/118/26 88/119/24
f 54/113/30 88/119/24 84/120/21
f 54/113/30 84/120/21 87/121/21
f 54/113/30 87/121/21 57/122/31
f 54/113/30 57/122/31 56/123/31
f 56/123/31 55/124/31 54/113/30
f 60/46/32 59/61/32 58/60/32
f 60/46/32 58/60/32 94/60/32
f 60/46/32 94/60/32 95/125/32
f 60/46/32 95/125/32 96/126/32
f 60/46/32 96/126/32 97/127/32
f 60/46/32 97/127/32 78/94/14
f 60/46/32 78/94/14 77/93/14
f 60/46/32 77/93/14 76/92/14
f 60/46/32 76/92/14 75/91/14
f 60/46/32 75/91/14 74/90/14
f 60/46/32 74/90/14 25/89/14
f 60/46/32 25/89/14 24/128/32
f 60/46/32 24/128/32 23/129/32
f 60/46/32 23/129/32 22/57/32
f 60/46/32 22/57/32 21/57/32
f 60/46/32 21/57/32 20/57/32
f 60/46/32 20/57/32 52/44/32
f 52/44/32 51/60/32 60/46/32
f 44/66/33 43/47/34 11/46/34
f 44/66/33 11/46/34 10/46/34
f 44/66/33 10/46/34 9/130/34
f 44/66/33 9/130/34 8/131/34
f 44/66/33 8/131/34 7/132/34
f 44/66/33 7/132/34 6/80/13
f 44/66/33 6/80/13 73/79/13
f 44/66/33 73/79/13 72/78/13
f 44/66/33 72/78/13 71/77/13
f 44/66/33 71/77/13 70/76/13
f 44/66/33 70/76/13 69/75/13
f 44/66/33 69/75/13 98/133/34
f 44/66/33 98/133/34 99/134/34
f 44/66/33 99/134/34 100/49/34
f 44/66/33 100/49/34 101/49/34
f 44/66/33 101/49/34 47/49/34
f 44/66/33 47/49/34 46/65/34
f 46/65/34 45/52/34 44/66/33
f 50/135/32 49/136/32 48/137/32
f 50/135/32 48/137/32 79/138/15
f 50/135/32 79/138/15 80/139/15
f 50/135/32 80/139/15 81/140/18
f 50/135/32 81/140/18 82/141/20
f 50/135/32 82/141/20 83/142/20
f 50/135/32 83/142/20 13/143/15
f 50/135/32 13/143/15 12/144/32
f 50/135/32 12/144/32 42/145/32
f 42/145/32 41/146/32 50/135/32
f 17/147/35 16/148/35 15/149/4
f 17/147/35 15/149/4 40/150/4
f 17/147/35 40/150/4 38/151/8
f 17/147/35 38/151/8 36/152/6
f 17/147/35 36/152/6 34/153/4
f 17/147/35 34/153/4 33/154/4
f 17/147/35 33/154/4 102/155/35
f 17/147/35 102/155/35 103/156/35
f 17/147/35 103/156/35 104/157/36
f 17/147/35 104/157/36 105/158/37
f 17/147/35 105/158/37 106/159/38
f 17/147/35 106/159/38 107/160/39
f 17/147/35 107/160/39 108/161/36
f 108/161/36 30/162/36 17/147/35
f 64/163/40 63/164/40 62/165/40
f 64/163/40 62/165/40 61/166/40
f 64/163/40 61/166/40 78/167/40
f 64/163/40 78/167/40 97/168/40
f 64/163/40 97/168/40 96/169/40
f 64/163/40 96/169/40 95/170/40
f 64/163/40 95/170/40 94/171/40
f 94/171/40 58/172/40 57/173/40
f 94/171/40 57/173/40 87/174/40
f 94/171/40 87/174/40 86/175/40
f 94/171/40 86/175/40 104/176/40
f 104/176/40 103/177/40 102/178/40
f 104/176/40 102/178/40 33/179/40
f 79/180/40 48/181/40 47/182/40
f 79/180/40 47/182/40 101/183/40
f 79/180/40 101/183/40 100/184/40
f 79/180/40 100/184/40 99/185/40
f 79/180/40 99/185/40 98/186/40
f 79/180/40 98/186/40 69/187/40
f 79/180/40 69/187/40 68/188/40
f 79/180/40 68/188/40 67/189/40
f 79/180/40 67/189/40 66/190/40
f 66/190/40 65/191/40 64/163/40
f 66/190/40 64/163/40 94/171/40
f 66/190/40 94/171/40 104/176/40
f 32/192/40 79/180/40 66/190/40
f 33/179/40 32/192/40 66/190/40
f 104/176/40 33/179/40 66/190/40
f 85/102/41 105/193/37 104/194/36
f 104/194/36 86/103/42 85/102/41
f 89/106/43 106/195/38 105/193/37
f 105/193/37 85/102/41 89/106/43
f 91/108/44 107/196/39 106/195/38
f 106/195/38 89/106/43 91/108/44
f 93/110/45 108/197/36 107/196/39
f 107/196/39 91/108/44 93/110/45
f 29/112/42 30/198/36 108/197/36
f 108/197/36 93/110/45 29/112/42

